{
  "accessors": [
    {
      "bufferView": 2,
      "componentType": 5126,
      "count": 499,
      "max": [
        -9.693328857421875,
        187.37603759765625,
        72.1707763671875
      ],
      "min": [
        -12.336084365844727,
        105.53504180908203,
        -72.17082214355469
      ],
      "type": "VEC3"
    },
    {
      "bufferView": 2,
      "byteOffset": 5988,
      "componentType": 5126,
      "count": 499,
      "max": [
        0.9999861121177673,
        0.9999796152114868,
        0.9999998807907104
      ],
      "min": [
        -0.023940006271004677,
        -0.9999845027923584,
        -0.9999998807907104
      ],
      "type": "VEC3"
    },
    {
      "bufferView": 3,
      "componentType": 5126,
      "count": 499,
      "max": [
        0.9990973472595215,
        0.9991317391395569,
        0.986351728439331,
        1.0
      ],
      "min": [
        -0.9998542666435242,
        -0.999828577041626,
        -0.9997401237487793,
        1.0
      ],
      "type": "VEC4"
    },
    {
      "bufferView": 1,
      "componentType": 5126,
      "count": 499,
      "max": [
        0.4543449878692627,
        0.5366449952125549
      ],
      "min": [
        0.19033800065517426,
        0.4300130009651184
      ],
      "type": "VEC2"
    },
    {
      "bufferView": 1,
      "byteOffset": 3992,
      "componentType": 5126,
      "count": 499,
      "max": [
        0.4543449878692627,
        0.5366449952125549
      ],
      "min": [
        0.19033800065517426,
        0.4300130009651184
      ],
      "type": "VEC2"
    },
    {
      "bufferView": 0,
      "componentType": 5125,
      "count": 2514,
      "type": "SCALAR"
    },
    {
      "bufferView": 2,
      "byteOffset": 11976,
      "componentType": 5126,
      "count": 176,
      "max": [
        -12.117359161376953,
        187.29263305664063,
        71.80233764648438
      ],
      "min": [
        -35.02568054199219,
        43.630516052246094,
        -71.82360076904297
      ],
      "type": "VEC3"
    },
    {
      "bufferView": 2,
      "byteOffset": 14088,
      "componentType": 5126,
      "count": 176,
      "max": [
        0.9999902248382568,
        0.999317467212677,
        0.9996339082717896
      ],
      "min": [
        -1.0,
        -0.9999121427536011,
        -0.999641478061676
      ],
      "type": "VEC3"
    },
    {
      "bufferView": 3,
      "byteOffset": 7984,
      "componentType": 5126,
      "count": 176,
      "max": [
        0.9998005032539368,
        0.21895405650138855,
        0.913727343082428,
        1.0
      ],
      "min": [
        -0.9985455274581909,
        -0.9506185054779053,
        -0.3106812834739685,
        1.0
      ],
      "type": "VEC4"
    },
    {
      "bufferView": 1,
      "byteOffset": 7984,
      "componentType": 5126,
      "count": 176,
      "max": [
        0.27806898951530457,
        0.4839540123939514
      ],
      "min": [
        0.03125,
        0.03125
      ],
      "type": "VEC2"
    },
    {
      "bufferView": 0,
      "byteOffset": 10056,
      "componentType": 5125,
      "count": 696,
      "type": "SCALAR"
    },
    {
      "bufferView": 2,
      "byteOffset": 16200,
      "componentType": 5126,
      "count": 826,
      "max": [
        42.80576705932617,
        112.92273712158203,
        92.15315246582031
      ],
      "min": [
        -27.24917984008789,
        0.4782710075378418,
        -92.15315246582031
      ],
      "type": "VEC3"
    },
    {
      "bufferView": 2,
      "byteOffset": 26112,
      "componentType": 5126,
      "count": 826,
      "max": [
        0.999995768070221,
        0.9999987483024597,
        1.0
      ],
      "min": [
        -0.9999996423721313,
        -0.9999192357063293,
        -1.0
      ],
      "type": "VEC3"
    },
    {
      "bufferView": 3,
      "byteOffset": 10800,
      "componentType": 5126,
      "count": 826,
      "max": [
        1.0,
        0.4857640564441681,
        0.9999410510063171,
        1.0
      ],
      "min": [
        -0.9994060397148132,
        -0.4859011173248291,
        -0.9999635219573975,
        1.0
      ],
      "type": "VEC4"
    },
    {
      "bufferView": 1,
      "byteOffset": 9392,
      "componentType": 5126,
      "count": 826,
      "max": [
        0.958266019821167,
        0.96875
      ],
      "min": [
        0.29409098625183105,
        0.03125
      ],
      "type": "VEC2"
    },
    {
      "bufferView": 0,
      "byteOffset": 12840,
      "componentType": 5125,
      "count": 2676,
      "type": "SCALAR"
    },
    {
      "bufferView": 2,
      "byteOffset": 36024,
      "componentType": 5126,
      "count": 143,
      "max": [
        36.84732437133789,
        72.03278350830078,
        52.696651458740234
      ],
      "min": [
        -20.26106834411621,
        48.24077606201172,
        -52.696651458740234
      ],
      "type": "VEC3"
    },
    {
      "bufferView": 2,
      "byteOffset": 37740,
      "componentType": 5126,
      "count": 143,
      "max": [
        0.9999947547912598,
        0.9998996257781982,
        0.4678691327571869
      ],
      "min": [
        -0.12926900386810303,
        -0.9999866485595703,
        -0.4678691327571869
      ],
      "type": "VEC3"
    },
    {
      "bufferView": 3,
      "byteOffset": 24016,
      "componentType": 5126,
      "count": 143,
      "max": [
        0.9998996257781982,
        0.1292518526315689,
        0.3474728763103485,
        1.0
      ],
      "min": [
        -0.9999866485595703,
        -0.9999780654907227,
        -0.34723100066185,
        1.0
      ],
      "type": "VEC4"
    },
    {
      "bufferView": 1,
      "byteOffset": 16000,
      "componentType": 5126,
      "count": 143,
      "max": [
        0.6358979940414429,
        0.5806270241737366
      ],
      "min": [
        0.4739300012588501,
        0.428505003452301
      ],
      "type": "VEC2"
    },
    {
      "bufferView": 0,
      "byteOffset": 23544,
      "componentType": 5125,
      "count": 720,
      "type": "SCALAR"
    },
    {
      "bufferView": 2,
      "byteOffset": 39456,
      "componentType": 5126,
      "count": 104,
      "max": [
        30.3590087890625,
        62.43796920776367,
        49.92891311645508
      ],
      "min": [
        -20.186355590820313,
        0.09381899982690811,
        -49.92891311645508
      ],
      "type": "VEC3"
    },
    {
      "bufferView": 2,
      "byteOffset": 40704,
      "componentType": 5126,
      "count": 104,
      "max": [
        0.9999997615814209,
        0.0027280007489025593,
        0.9999997615814209
      ],
      "min": [
        -0.9999992251396179,
        -0.005339000374078751,
        -0.9999997615814209
      ],
      "type": "VEC3"
    },
    {
      "bufferView": 3,
      "byteOffset": 26304,
      "componentType": 5126,
      "count": 104,
      "max": [
        0.002403570804744959,
        -0.9999809265136719,
        0.005677319597452879,
        1.0
      ],
      "min": [
        -0.0058493344113230705,
        -1.0,
        -0.005572007969021797,
        1.0
      ],
      "type": "VEC4"
    },
    {
      "bufferView": 1,
      "byteOffset": 17144,
      "componentType": 5126,
      "count": 104,
      "max": [
        0.9249669909477234,
        0.7241449952125549
      ],
      "min": [
        0.6537690162658691,
        0.03125
      ],
      "type": "VEC2"
    },
    {
      "bufferView": 0,
      "byteOffset": 26424,
      "componentType": 5125,
      "count": 288,
      "type": "SCALAR"
    },
    {
      "bufferView": 2,
      "byteOffset": 41952,
      "componentType": 5126,
      "count": 11,
      "max": [
        -0.03081599995493889,
        57.803131103515625,
        29.60429573059082
      ],
      "min": [
        -13.468368530273438,
        -7.599999662488699e-05,
        -29.604291915893555
      ],
      "type": "VEC3"
    },
    {
      "bufferView": 2,
      "byteOffset": 42084,
      "componentType": 5126,
      "count": 11,
      "max": [
        0.9999788999557495,
        0.0,
        0.05040200799703598
      ],
      "min": [
        -1.0,
        0.0,
        -0.05040200799703598
      ],
      "type": "VEC3"
    },
    {
      "bufferView": 3,
      "byteOffset": 27968,
      "componentType": 5126,
      "count": 11,
      "max": [
        0.05040200799703598,
        1.0,
        0.9959259629249573,
        1.0
      ],
      "min": [
        -0.050401996821165085,
        -0.001353759435005486,
        -0.9999991655349731,
        -1.0
      ],
      "type": "VEC4"
    },
    {
      "bufferView": 1,
      "byteOffset": 17976,
      "componentType": 5126,
      "count": 11,
      "max": [
        0.7478809952735901,
        0.9262570142745972
      ],
      "min": [
        0.5500159859657288,
        0.3218330144882202
      ],
      "type": "VEC2"
    },
    {
      "bufferView": 0,
      "byteOffset": 27576,
      "componentType": 5125,
      "count": 21,
      "type": "SCALAR"
    },
    {
      "bufferView": 2,
      "byteOffset": 42216,
      "componentType": 5126,
      "count": 1679,
      "max": [
        48.09927749633789,
        116.06041717529297,
        73.59573364257813
      ],
      "min": [
        -32.13121032714844,
        -0.1011200025677681,
        -73.59573364257813
      ],
      "type": "VEC3"
    },
    {
      "bufferView": 2,
      "byteOffset": 62364,
      "componentType": 5126,
      "count": 1679,
      "max": [
        0.9999973773956299,
        0.9999961256980896,
        0.9999946355819702
      ],
      "min": [
        -0.9973241090774536,
        -0.9999979734420776,
        -0.9999946355819702
      ],
      "type": "VEC3"
    },
    {
      "bufferView": 3,
      "byteOffset": 28144,
      "componentType": 5126,
      "count": 1679,
      "max": [
        0.997798502445221,
        0.9999775886535645,
        0.9998293519020081,
        1.0
      ],
      "min": [
        -1.0,
        -0.999968409538269,
        -0.9999514222145081,
        -1.0
      ],
      "type": "VEC4"
    },
    {
      "bufferView": 1,
      "byteOffset": 18064,
      "componentType": 5126,
      "count": 1679,
      "max": [
        0.9674170017242432,
        0.8468390107154846
      ],
      "min": [
        0.03125,
        0.03125
      ],
      "type": "VEC2"
    },
    {
      "bufferView": 0,
      "byteOffset": 27660,
      "componentType": 5125,
      "count": 7146,
      "type": "SCALAR"
    },
    {
      "bufferView": 2,
      "byteOffset": 82512,
      "componentType": 5126,
      "count": 182,
      "max": [
        30.678619384765625,
        65.90556335449219,
        126.15196228027344
      ],
      "min": [
        -9.987215042114258,
        0.8317570090293884,
        -126.15196228027344
      ],
      "type": "VEC3"
    },
    {
      "bufferView": 2,
      "byteOffset": 84696,
      "componentType": 5126,
      "count": 182,
      "max": [
        0.9999903440475464,
        0.6803819537162781,
        0.7405579686164856
      ],
      "min": [
        -0.9999970197677612,
        -0.7086832523345947,
        -0.7405579686164856
      ],
      "type": "VEC3"
    },
    {
      "bufferView": 3,
      "byteOffset": 55008,
      "componentType": 5126,
      "count": 182,
      "max": [
        0.09516918659210205,
        -0.6969068646430969,
        0.7141650915145874,
        1.0
      ],
      "min": [
        -0.037725985050201416,
        -0.7533145546913147,
        -0.7122994661331177,
        1.0
      ],
      "type": "VEC4"
    },
    {
      "bufferView": 1,
      "byteOffset": 31496,
      "componentType": 5126,
      "count": 182,
      "max": [
        0.8969889879226685,
        0.8986020088195801
      ],
      "min": [
        0.238756000995636,
        0.07969799637794495
      ],
      "type": "VEC2"
    },
    {
      "bufferView": 0,
      "byteOffset": 56244,
      "componentType": 5125,
      "count": 504,
      "type": "SCALAR"
    },
    {
      "bufferView": 2,
      "byteOffset": 86880,
      "componentType": 5126,
      "count": 1314,
      "max": [
        49.55983352661133,
        67.8804931640625,
        39.05055236816406
      ],
      "min": [
        -12.318901062011719,
        21.639617919921875,
        -39.203739166259766
      ],
      "type": "VEC3"
    },
    {
      "bufferView": 2,
      "byteOffset": 102648,
      "componentType": 5126,
      "count": 1314,
      "max": [
        0.9991531372070313,
        0.9999338984489441,
        0.8524838089942932
      ],
      "min": [
        -0.9992156028747559,
        -0.9999338984489441,
        -0.8634235262870789
      ],
      "type": "VEC3"
    },
    {
      "bufferView": 3,
      "byteOffset": 57920,
      "componentType": 5126,
      "count": 1314,
      "max": [
        0.8661662936210632,
        0.8492425084114075,
        0.9999908208847046,
        1.0
      ],
      "min": [
        -0.8218477964401245,
        -0.9403412938117981,
        -0.999986469745636,
        1.0
      ],
      "type": "VEC4"
    },
    {
      "bufferView": 1,
      "byteOffset": 32952,
      "componentType": 5126,
      "count": 1314,
      "max": [
        0.26774901151657104,
        0.8810579776763916
      ],
      "min": [
        0.03125,
        0.707377016544342
      ],
      "type": "VEC2"
    },
    {
      "bufferView": 0,
      "byteOffset": 58260,
      "componentType": 5125,
      "count": 7296,
      "type": "SCALAR"
    },
    {
      "bufferView": 2,
      "byteOffset": 118416,
      "componentType": 5126,
      "count": 1406,
      "max": [
        -17.05292320251465,
        220.19845581054688,
        89.87645721435547
      ],
      "min": [
        -25.4295654296875,
        146.3312225341797,
        -89.87645721435547
      ],
      "type": "VEC3"
    },
    {
      "bufferView": 2,
      "byteOffset": 135288,
      "componentType": 5126,
      "count": 1406,
      "max": [
        0.9999972581863403,
        0.9978089928627014,
        0.9988595247268677
      ],
      "min": [
        -0.010696996934711933,
        -0.9967787861824036,
        -0.9988595247268677
      ],
      "type": "VEC3"
    },
    {
      "bufferView": 3,
      "byteOffset": 78944,
      "componentType": 5126,
      "count": 1406,
      "max": [
        0.9982051849365234,
        0.9997851252555847,
        0.8938152194023132,
        1.0
      ],
      "min": [
        -0.9982211589813232,
        -0.9997901320457458,
        -0.9972999691963196,
        1.0
      ],
      "type": "VEC4"
    },
    {
      "bufferView": 1,
      "byteOffset": 43464,
      "componentType": 5126,
      "count": 1406,
      "max": [
        0.9226790070533752,
        0.9483129978179932
      ],
      "min": [
        0.03125,
        0.3790299892425537
      ],
      "type": "VEC2"
    },
    {
      "bufferView": 0,
      "byteOffset": 87444,
      "componentType": 5125,
      "count": 4992,
      "type": "SCALAR"
    },
    {
      "bufferView": 2,
      "byteOffset": 152160,
      "componentType": 5126,
      "count": 1990,
      "max": [
        -4.542987823486328,
        201.1299285888672,
        82.12071990966797
      ],
      "min": [
        -35.7637825012207,
        135.3053741455078,
        -82.12071990966797
      ],
      "type": "VEC3"
    },
    {
      "bufferView": 2,
      "byteOffset": 176040,
      "componentType": 5126,
      "count": 1990,
      "max": [
        0.9999995231628418,
        0.9999358654022217,
        0.9858735203742981
      ],
      "min": [
        -0.9999997615814209,
        -0.9997815489768982,
        -0.9858735203742981
      ],
      "type": "VEC3"
    },
    {
      "bufferView": 3,
      "byteOffset": 101440,
      "componentType": 5126,
      "count": 1990,
      "max": [
        0.9999998211860657,
        0.9999908208847046,
        0.7582404017448425,
        1.0
      ],
      "min": [
        -1.0,
        -0.12388033419847488,
        -0.757979154586792,
        1.0
      ],
      "type": "VEC4"
    },
    {
      "bufferView": 1,
      "byteOffset": 54712,
      "componentType": 5126,
      "count": 1990,
      "max": [
        0.8816879987716675,
        0.6844000220298767
      ],
      "min": [
        0.3079249858856201,
        0.03125
      ],
      "type": "VEC2"
    },
    {
      "bufferView": 0,
      "byteOffset": 107412,
      "componentType": 5125,
      "count": 4812,
      "type": "SCALAR"
    }
  ],
  "asset": {
    "extras": {
      "author": "arnaud.sgz (https://sketchfab.com/arnaud.sougnez)",
      "license": "CC-BY-4.0 (http://creativecommons.org/licenses/by/4.0/)",
      "source": "https://sketchfab.com/3d-models/aztec-throne-db646b285a6044db99e33116c1927111",
      "title": "Aztec Throne"
    },
    "generator": "Sketchfab-12.67.0",
    "version": "2.0"
  },
  "bufferViews": [
    {
      "buffer": 0,
      "byteLength": 126660,
      "name": "floatBufferViews",
      "target": 34963
    },
    {
      "buffer": 0,
      "byteLength": 70632,
      "byteOffset": 126660,
      "byteStride": 8,
      "name": "floatBufferViews",
      "target": 34962
    },
    {
      "buffer": 0,
      "byteLength": 199920,
      "byteOffset": 197292,
      "byteStride": 12,
      "name": "floatBufferViews",
      "target": 34962
    },
    {
      "buffer": 0,
      "byteLength": 133280,
      "byteOffset": 397212,
      "byteStride": 16,
      "name": "floatBufferViews",
      "target": 34962
    }
  ],
  "buffers": [
    {
      "byteLength": 530492,
      "uri": "scene.bin"
    }
  ],
  "images": [
    {
      "uri": "textures/lambert3_baseColor.png"
    },
    {
      "uri": "textures/lambert3_metallicRoughness.png"
    },
    {
      "uri": "textures/lambert3_emissive.jpeg"
    },
    {
      "uri": "textures/lambert3_normal.png"
    }
  ],
  "materials": [
    {
      "alphaMode": "BLEND",
      "doubleSided": true,
      "emissiveFactor": [
        1.0,
        1.0,
        1.0
      ],
      "emissiveTexture": {
        "index": 2
      },
      "name": "lambert3",
      "normalTexture": {
        "index": 3
      },
      "occlusionTexture": {
        "index": 1
      },
      "pbrMetallicRoughness": {
        "baseColorTexture": {
          "index": 0
        },
        "metallicRoughnessTexture": {
          "index": 1
        }
      }
    }
  ],
  "meshes": [
    {
      "name": "defaultMaterial",
      "primitives": [
        {
          "attributes": {
            "NORMAL": 1,
            "POSITION": 0,
            "TANGENT": 2,
            "TEXCOORD_0": 3,
            "TEXCOORD_1": 4
          },
          "indices": 5,
          "material": 0,
          "mode": 4
        }
      ]
    },
    {
      "name": "defaultMaterial",
      "primitives": [
        {
          "attributes": {
            "NORMAL": 7,
            "POSITION": 6,
            "TANGENT": 8,
            "TEXCOORD_0": 9
          },
          "indices": 10,
          "material": 0,
          "mode": 4
        }
      ]
    },
    {
      "name": "defaultMaterial",
      "primitives": [
        {
          "attributes": {
            "NORMAL": 12,
            "POSITION": 11,
            "TANGENT": 13,
            "TEXCOORD_0": 14
          },
          "indices": 15,
          "material": 0,
          "mode": 4
        }
      ]
    },
    {
      "name": "defaultMaterial",
      "primitives": [
        {
          "attributes": {
            "NORMAL": 17,
            "POSITION": 16,
            "TANGENT": 18,
            "TEXCOORD_0": 19
          },
          "indices": 20,
          "material": 0,
          "mode": 4
        }
      ]
    },
    {
      "name": "defaultMaterial",
      "primitives": [
        {
          "attributes": {
            "NORMAL": 22,
            "POSITION": 21,
            "TANGENT": 23,
            "TEXCOORD_0": 24
          },
          "indices": 25,
          "material": 0,
          "mode": 4
        }
      ]
    },
    {
      "name": "defaultMaterial",
      "primitives": [
        {
          "attributes": {
            "NORMAL": 27,
            "POSITION": 26,
            "TANGENT": 28,
            "TEXCOORD_0": 29
          },
          "indices": 30,
          "material": 0,
          "mode": 4
        }
      ]
    },
    {
      "name": "defaultMaterial",
      "primitives": [
        {
          "attributes": {
            "NORMAL": 32,
            "POSITION": 31,
            "TANGENT": 33,
            "TEXCOORD_0": 34
          },
          "indices": 35,
          "material": 0,
          "mode": 4
        }
      ]
    },
    {
      "name": "defaultMaterial",
      "primitives": [
        {
          "attributes": {
            "NORMAL": 37,
            "POSITION": 36,
            "TANGENT": 38,
            "TEXCOORD_0": 39
          },
          "indices": 40,
          "material": 0,
          "mode": 4
        }
      ]
    },
    {
      "name": "defaultMaterial",
      "primitives": [
        {
          "attributes": {
            "NORMAL": 42,
            "POSITION": 41,
            "TANGENT": 43,
            "TEXCOORD_0": 44
          },
          "indices": 45,
          "material": 0,
          "mode": 4
        }
      ]
    },
    {
      "name": "defaultMaterial",
      "primitives": [
        {
          "attributes": {
            "NORMAL": 47,
            "POSITION": 46,
            "TANGENT": 48,
            "TEXCOORD_0": 49
          },
          "indices": 50,
          "material": 0,
          "mode": 4
        }
      ]
    },
    {
      "name": "defaultMaterial",
      "primitives": [
        {
          "attributes": {
            "NORMAL": 52,
            "POSITION": 51,
            "TANGENT": 53,
            "TEXCOORD_0": 54
          },
          "indices": 55,
          "material": 0,
          "mode": 4
        }
      ]
    }
  ],
  "nodes": [
    {
      "children": [
        1
      ],
      "matrix": [
        0.010188812389969826,
        0.0,
        0.0,
        0.0,
        0.0,
        2.262370821786114e-18,
        -0.010188812389969826,
        0.0,
        0.0,
        0.010188812389969826,
        2.262370821786114e-18,
        0.0,
        0.0,
        0.0,
        0.0,
        1.0
      ],
      "name": "Sketchfab_model"
    },
    {
      "children": [
        2
      ],
      "matrix": [
        1.0,
        0.0,
        0.0,
        0.0,
        0.0,
        -4.371139006309477e-08,
        0.999999999999999,
        0.0,
        0.0,
        -0.999999999999999,
        -4.371139006309477e-08,
        0.0,
        0.0,
        0.0,
        0.0,
        1.0
      ],
      "name": "Collada visual scene group"
    },
    {
      "children": [
        3,
        5,
        7,
        9,
        11,
        13,
        15,
        17,
        19,
        21,
        23
      ],
      "name": "group2"
    },
    {
      "children": [
        4
      ],
      "name": "Cercle_int_low"
    },
    {
      "mesh": 0,
      "name": "defaultMaterial"
    },
    {
      "children": [
        6
      ],
      "name": "Logo_low"
    },
    {
      "mesh": 1,
      "name": "defaultMaterial"
    },
    {
      "children": [
        8
      ],
      "name": "Body_low"
    },
    {
      "mesh": 2,
      "name": "defaultMaterial"
    },
    {
      "children": [
        10
      ],
      "name": "Siege_low"
    },
    {
      "mesh": 3,
      "name": "defaultMaterial"
    },
    {
      "children": [
        12
      ],
      "name": "Pieds_low"
    },
    {
      "mesh": 4,
      "name": "defaultMaterial"
    },
    {
      "children": [
        14
      ],
      "name": "Fond_low"
    },
    {
      "mesh": 5,
      "name": "defaultMaterial"
    },
    {
      "children": [
        16
      ],
      "name": "Deco_body_low"
    },
    {
      "mesh": 6,
      "name": "defaultMaterial"
    },
    {
      "children": [
        18
      ],
      "name": "Renfort_low"
    },
    {
      "mesh": 7,
      "name": "defaultMaterial"
    },
    {
      "children": [
        20
      ],
      "name": "Drap_siege_low"
    },
    {
      "mesh": 8,
      "name": "defaultMaterial"
    },
    {
      "children": [
        22
      ],
      "name": "Ears_low"
    },
    {
      "mesh": 9,
      "name": "defaultMaterial"
    },
    {
      "children": [
        24
      ],
      "name": "Cercle_low"
    },
    {
      "mesh": 10,
      "name": "defaultMaterial"
    }
  ],
  "samplers": [
    {
      "magFilter": 9729,
      "minFilter": 9987,
      "wrapS": 10497,
      "wrapT": 10497
    }
  ],
  "scene": 0,
  "scenes": [
    {
      "name": "Sketchfab_Scene",
      "nodes": [
        0
      ]
    }
  ],
  "textures": [
    {
      "sampler": 0,
      "source": 0
    },
    {
      "sampler": 0,
      "source": 1
    },
    {
      "sampler": 0,
      "source": 2
    },
    {
      "sampler": 0,
      "source": 3
    }
  ]
}
